<svg xmlns="http://www.w3.org/2000/svg" width="18" height="16" fill="none" viewBox="0 0 18 16"><path fill="#2C819F" fill-rule="evenodd" d="M2.686 3.177c-.46 0-.837.363-.837.804v9.58c0 .441.378.803.837.803h12.628c.46 0 .837-.362.837-.803v-9.58c0-.441-.377-.804-.837-.804H2.686Zm14.647.804c0-1.069-.906-1.94-2.019-1.94H2.686c-1.113 0-2.02.871-2.02 1.94v9.58c0 1.068.907 1.939 2.02 1.939h12.628c1.113 0 2.02-.87 2.02-1.939v-9.58Z" clip-rule="evenodd"/><path fill="#2C819F" fill-rule="evenodd" d="M5.845.5a.58.58 0 0 1 .591.568v2.636a.58.58 0 0 1-.591.568.58.58 0 0 1-.591-.568V1.068A.58.58 0 0 1 5.844.5ZM12.155.5a.58.58 0 0 1 .591.568v2.636a.58.58 0 0 1-.591.568.58.58 0 0 1-.591-.568V1.068A.58.58 0 0 1 12.155.5Z" clip-rule="evenodd"/><path fill="#2C819F" d="M5.49 8.02c.537 0 .972-.418.972-.933 0-.516-.435-.933-.972-.933-.536 0-.971.417-.971.933 0 .515.435.932.971.932ZM9.004 8.02c.537 0 .972-.418.972-.933 0-.516-.435-.933-.972-.933-.536 0-.971.417-.971.933 0 .515.435.932.971.932ZM12.51 8.02c.536 0 .971-.418.971-.933 0-.516-.435-.933-.971-.933-.537 0-.971.417-.971.933 0 .515.434.932.97.932ZM5.49 11.387c.537 0 .972-.418.972-.933 0-.516-.435-.933-.972-.933-.536 0-.971.417-.971.933 0 .515.435.933.971.933ZM9.004 11.387c.537 0 .972-.418.972-.933 0-.516-.435-.933-.972-.933-.536 0-.971.417-.971.933 0 .515.435.933.971.933ZM12.51 11.387c.536 0 .971-.418.971-.933 0-.516-.435-.933-.971-.933-.537 0-.971.417-.971.933 0 .515.434.933.97.933Z"/></svg>